<mxfile host="65bd71144e">
    <diagram id="fN5Z0hSTAfWw_drD3pTO" name="Page-1">
        <mxGraphModel dx="1216" dy="784" grid="0" gridSize="10" guides="1" tooltips="1" connect="1" arrows="1" fold="1" page="1" pageScale="1" pageWidth="850" pageHeight="1100" background="#ffffff" math="0" shadow="0">
            <root>
                <mxCell id="0"/>
                <mxCell id="1" parent="0"/>
                <mxCell id="7" style="edgeStyle=none;html=1;entryX=0;entryY=0;entryDx=0;entryDy=0;fontFamily=Helvetica;fontSize=12;fontColor=#0b0a0a;strokeColor=#000000;" parent="1" source="2" target="5" edge="1">
                    <mxGeometry relative="1" as="geometry"/>
                </mxCell>
                <mxCell id="2" value="&lt;table border=&quot;1&quot; width=&quot;100%&quot; height=&quot;100%&quot; cellpadding=&quot;4&quot; style=&quot;width:100%;height:100%;border-collapse:collapse;&quot;&gt;&lt;tbody&gt;&lt;tr&gt;&lt;th style=&quot;text-align: center; background-color: rgb(181, 181, 181);&quot;&gt;&lt;font&gt;Student&lt;/font&gt;&lt;/th&gt;&lt;/tr&gt;&lt;tr&gt;&lt;td style=&quot;background-color: rgb(181, 181, 181);&quot;&gt;&lt;ul style=&quot;line-height: 70%;&quot;&gt;&lt;li style=&quot;&quot;&gt;studentID: int&lt;/li&gt;&lt;li&gt;name: string&lt;/li&gt;&lt;li&gt;email: string&lt;/li&gt;&lt;li&gt;password: string&lt;/li&gt;&lt;/ul&gt;&lt;/td&gt;&lt;/tr&gt;&lt;tr&gt;&lt;td style=&quot;background-color: rgb(181, 181, 181);&quot;&gt;&lt;ul style=&quot;line-height: 0%;&quot;&gt;&lt;li style=&quot;&quot;&gt;registerCourse(courseID: int): void&lt;/li&gt;&lt;/ul&gt;&lt;/td&gt;&lt;/tr&gt;&lt;/tbody&gt;&lt;/table&gt;" style="text;html=1;whiteSpace=wrap;strokeColor=none;fillColor=#615e64;overflow=fill;gradientColor=#525252;fontColor=#0b0a0a;spacing=2;verticalAlign=top;align=left;" parent="1" vertex="1">
                    <mxGeometry x="30" y="150" width="250" height="150" as="geometry"/>
                </mxCell>
                <mxCell id="8" value="" style="edgeStyle=none;html=1;fontFamily=Helvetica;fontSize=12;fontColor=#0b0a0a;strokeColor=#000000;" parent="1" source="3" target="5" edge="1">
                    <mxGeometry relative="1" as="geometry"/>
                </mxCell>
                <mxCell id="3" value="&lt;table border=&quot;1&quot; width=&quot;100%&quot; height=&quot;100%&quot; cellpadding=&quot;4&quot; style=&quot;width:100%;height:100%;border-collapse:collapse;&quot;&gt;&lt;tbody&gt;&lt;tr&gt;&lt;th style=&quot;text-align: center; background-color: rgb(181, 181, 181);&quot;&gt;&lt;font&gt;Instructor&lt;/font&gt;&lt;/th&gt;&lt;/tr&gt;&lt;tr&gt;&lt;td style=&quot;background-color: rgb(181, 181, 181);&quot;&gt;&lt;ul style=&quot;line-height: 70%;&quot;&gt;&lt;li style=&quot;&quot;&gt;instructorID: int&lt;/li&gt;&lt;li style=&quot;&quot;&gt;name:string&lt;/li&gt;&lt;li style=&quot;&quot;&gt;email: string&lt;/li&gt;&lt;li style=&quot;&quot;&gt;password: string&lt;/li&gt;&lt;/ul&gt;&lt;/td&gt;&lt;/tr&gt;&lt;tr&gt;&lt;td style=&quot;background-color: rgb(181, 181, 181);&quot;&gt;&lt;ul style=&quot;line-height: 0%;&quot;&gt;&lt;li style=&quot;&quot;&gt;teachCourse(courseID: int): void&lt;/li&gt;&lt;/ul&gt;&lt;/td&gt;&lt;/tr&gt;&lt;/tbody&gt;&lt;/table&gt;" style="text;html=1;whiteSpace=wrap;strokeColor=none;fillColor=#615e64;overflow=fill;gradientColor=#525252;fontColor=#0b0a0a;spacing=2;verticalAlign=top;align=left;" parent="1" vertex="1">
                    <mxGeometry x="305" y="150" width="240" height="150" as="geometry"/>
                </mxCell>
                <mxCell id="9" style="edgeStyle=none;html=1;entryX=1;entryY=0;entryDx=0;entryDy=0;fontFamily=Helvetica;fontSize=12;fontColor=#0b0a0a;strokeColor=#000000;" parent="1" source="4" target="5" edge="1">
                    <mxGeometry relative="1" as="geometry"/>
                </mxCell>
                <mxCell id="4" value="&lt;table border=&quot;1&quot; width=&quot;100%&quot; height=&quot;100%&quot; cellpadding=&quot;4&quot; style=&quot;width:100%;height:100%;border-collapse:collapse;&quot;&gt;&lt;tbody&gt;&lt;tr&gt;&lt;th style=&quot;text-align: center; background-color: rgb(181, 181, 181);&quot;&gt;Administrator&lt;/th&gt;&lt;/tr&gt;&lt;tr&gt;&lt;td style=&quot;background-color: rgb(181, 181, 181);&quot;&gt;&lt;ul style=&quot;line-height: 70%;&quot;&gt;&lt;li style=&quot;&quot;&gt;adminID: int&lt;/li&gt;&lt;li style=&quot;&quot;&gt;name: string&lt;/li&gt;&lt;li style=&quot;&quot;&gt;email: string&lt;/li&gt;&lt;li style=&quot;&quot;&gt;password: string&lt;/li&gt;&lt;/ul&gt;&lt;/td&gt;&lt;/tr&gt;&lt;tr&gt;&lt;td style=&quot;background-color: rgb(181, 181, 181);&quot;&gt;&lt;ul style=&quot;line-height: 0%;&quot;&gt;&lt;li style=&quot;&quot;&gt;createCourse(courseID: int): void&lt;/li&gt;&lt;/ul&gt;&lt;/td&gt;&lt;/tr&gt;&lt;/tbody&gt;&lt;/table&gt;" style="text;html=1;whiteSpace=wrap;strokeColor=none;fillColor=#615e64;overflow=fill;gradientColor=#525252;fontColor=#0b0a0a;spacing=2;verticalAlign=top;align=left;" parent="1" vertex="1">
                    <mxGeometry x="580" y="150" width="240" height="150" as="geometry"/>
                </mxCell>
                <mxCell id="5" value="&lt;table border=&quot;1&quot; width=&quot;100%&quot; height=&quot;100%&quot; cellpadding=&quot;4&quot; style=&quot;width:100%;height:100%;border-collapse:collapse;&quot;&gt;&lt;tbody&gt;&lt;tr&gt;&lt;th style=&quot;text-align: center; background-color: rgb(181, 181, 181);&quot;&gt;&lt;font&gt;Course&lt;/font&gt;&lt;/th&gt;&lt;/tr&gt;&lt;tr&gt;&lt;td style=&quot;background-color: rgb(181, 181, 181);&quot;&gt;&lt;ul style=&quot;line-height: 70%;&quot;&gt;&lt;li style=&quot;&quot;&gt;courseID: int&lt;/li&gt;&lt;li style=&quot;&quot;&gt;name:string&lt;/li&gt;&lt;li style=&quot;&quot;&gt;instructorID: int&lt;/li&gt;&lt;li style=&quot;&quot;&gt;schedule: string&lt;/li&gt;&lt;/ul&gt;&lt;/td&gt;&lt;/tr&gt;&lt;tr&gt;&lt;td style=&quot;background-color: rgb(181, 181, 181);&quot;&gt;&lt;ul style=&quot;line-height: 0%;&quot;&gt;&lt;li style=&quot;&quot;&gt;getInstructor(): Instructor&lt;/li&gt;&lt;/ul&gt;&lt;/td&gt;&lt;/tr&gt;&lt;/tbody&gt;&lt;/table&gt;" style="text;html=1;whiteSpace=wrap;strokeColor=none;fillColor=#615e64;overflow=fill;gradientColor=#525252;fontColor=#0b0a0a;spacing=2;verticalAlign=top;align=left;" parent="1" vertex="1">
                    <mxGeometry x="300" y="390" width="240" height="150" as="geometry"/>
                </mxCell>
            </root>
        </mxGraphModel>
    </diagram>
</mxfile>